# xmcd
#
# Track frame offsets:
#	150
#	33527
#	47177
#	78603
#	117903
#	147303
#	169127
#	194547
#	227626
#	271725
#	311172
#
# Disc length: 4525 seconds
#
# Revision: 1
# Processed by: cddbd v1.5.2PL0 Copyright (c) Steve Scherf et al.
# Submitted via: audiograbber 1.83.01
#
DISCID=9d11ab0b
DTITLE=Various Artist - Crossroads Guitar Fest_Disc 1
DYEAR=1900
DGENRE=
TTITLE0=Gloria - Bill Murray
TTITLE1=Uberesso - Sonny Landreth
TTITLE2=Hell at Home - Sonny Landreth With Eric Clapton
TTITLE3=Maharina - John McLaughlin
TTITLE4=Rosie - Doyle Bramhall II
TTITLE5=Outside Woman Blues - Doyle Bramhall II
TTITLE6=Little by Little - Susan Tedeschi With the Derek Trucks Band
TTITLE7=Anyday - The Derek Trucks Band
TTITLE8=Highway 61 Revisited - Johnny Winter
TTITLE9=Nobodysould - Robert Randolph and the Family Band
TTITLE10=Poor Johnny - The Robert Cray Band
EXTD=
EXTT0=
EXTT1=
EXTT2=
EXTT3=
EXTT4=
EXTT5=
EXTT6=
EXTT7=
EXTT8=
EXTT9=
EXTT10=
PLAYORDER=
